<?xml version="1.0" encoding="UTF-8"?>
<svg xmlns="http://www.w3.org/2000/svg" width="107" height="16" viewBox="0 0 107 16" fill="none">
  <path d="M3.75 2C3.33 2 3 1.67 3 1.25C3 0.83 3.33 0.5 3.75 0.5C4.17 0.5 4.5 0.83 4.5 1.25C4.5 1.67 4.17 2 3.75 2ZM5.25 2C4.83 2 4.5 1.67 4.5 1.25C4.5 0.83 4.83 0.5 5.25 0.5C5.67 0.5 6 0.83 6 1.25C6 1.67 5.67 2 5.25 2ZM2.25 2C1.83 2 1.5 1.67 1.5 1.25C1.5 0.83 1.83 0.5 2.25 0.5C2.67 0.5 3 0.83 3 1.25C3 1.67 2.67 2 2.25 2ZM0.75 2C0.33 2 0 1.67 0 1.25C0 0.83 0.33 0.5 0.75 0.5C1.17 0.5 1.5 0.83 1.5 1.25C1.5 1.67 1.17 2 0.75 2ZM6.75 2C6.33 2 6 1.67 6 1.25C6 0.83 6.33 0.5 6.75 0.5C7.17 0.5 7.5 0.83 7.5 1.25C7.5 1.67 7.17 2 6.75 2ZM5.25 3.5C4.83 3.5 4.5 3.17 4.5 2.75C4.5 2.33 4.83 2 5.25 2C5.67 2 6 2.33 6 2.75C6 3.17 5.67 3.5 5.25 3.5ZM9.75 3.5C9.33 3.5 9 3.17 9 2.75C9 2.33 9.33 2 9.75 2C10.17 2 10.5 2.33 10.5 2.75C10.5 3.17 10.17 3.5 9.75 3.5ZM2.25 3.5C1.83 3.5 1.5 3.17 1.5 2.75C1.5 2.33 1.83 2 2.25 2C2.67 2 3 2.33 3 2.75C3 3.17 2.67 3.5 2.25 3.5ZM6.75 3.5C6.33 3.5 6 3.17 6 2.75C6 2.33 6.33 2 6.75 2C7.17 2 7.5 2.33 7.5 2.75C7.5 3.17 7.17 3.5 6.75 3.5ZM8.25 3.5C7.83 3.5 7.5 3.17 7.5 2.75C7.5 2.33 7.83 2 8.25 2C8.67 2 9 2.33 9 2.75C9 3.17 8.67 3.5 8.25 3.5ZM0.75 3.5C0.33 3.5 0 3.17 0 2.75C0 2.33 0.33 2 0.75 2C1.17 2 1.5 2.33 1.5 2.75C1.5 3.17 1.17 3.5 0.75 3.5ZM3.75 3.5C3.33 3.5 3 3.17 3 2.75C3 2.33 3.33 2 3.75 2C4.17 2 4.5 2.33 4.5 2.75C4.5 3.17 4.17 3.5 3.75 3.5ZM2.25 5C1.83 5 1.5 4.67 1.5 4.25C1.5 3.83 1.83 3.5 2.25 3.5C2.67 3.5 3 3.83 3 4.25C3 4.67 2.67 5 2.25 5ZM9.75 5C9.33 5 9 4.67 9 4.25C9 3.83 9.33 3.5 9.75 3.5C10.17 3.5 10.5 3.83 10.5 4.25C10.5 4.67 10.17 5 9.75 5ZM0.75 5C0.33 5 0 4.67 0 4.25C0 3.83 0.33 3.5 0.75 3.5C1.17 3.5 1.5 3.83 1.5 4.25C1.5 4.67 1.17 5 0.75 5ZM8.25 5C7.83 5 7.5 4.67 7.5 4.25C7.5 3.83 7.83 3.5 8.25 3.5C8.67 3.5 9 3.83 9 4.25C9 4.67 8.67 5 8.25 5ZM11.25 5C10.83 5 10.5 4.67 10.5 4.25C10.5 3.83 10.83 3.5 11.25 3.5C11.67 3.5 12 3.83 12 4.25C12 4.67 11.67 5 11.25 5ZM9.75 6.5C9.33 6.5 9 6.17 9 5.75C9 5.33 9.33 5 9.75 5C10.17 5 10.5 5.33 10.5 5.75C10.5 6.17 10.17 6.5 9.75 6.5ZM11.25 6.5C10.83 6.5 10.5 6.17 10.5 5.75C10.5 5.33 10.83 5 11.25 5C11.67 5 12 5.33 12 5.75C12 6.17 11.67 6.5 11.25 6.5ZM2.25 6.5C1.83 6.5 1.5 6.17 1.5 5.75C1.5 5.33 1.83 5 2.25 5C2.67 5 3 5.33 3 5.75C3 6.17 2.67 6.5 2.25 6.5ZM0.75 6.5C0.33 6.5 0 6.17 0 5.75C0 5.33 0.33 5 0.75 5C1.17 5 1.5 5.33 1.5 5.75C1.5 6.17 1.17 6.5 0.75 6.5ZM0.75 8C0.33 8 0 7.67 0 7.25C0 6.83 0.33 6.5 0.75 6.5C1.17 6.5 1.5 6.83 1.5 7.25C1.5 7.67 1.17 8 0.75 8ZM2.25 8C1.83 8 1.5 7.67 1.5 7.25C1.5 6.83 1.83 6.5 2.25 6.5C2.67 6.5 3 6.83 3 7.25C3 7.67 2.67 8 2.25 8ZM9.75 8C9.33 8 9 7.67 9 7.25C9 6.83 9.33 6.5 9.75 6.5C10.17 6.5 10.5 6.83 10.5 7.25C10.5 7.67 10.17 8 9.75 8ZM11.25 8C10.83 8 10.5 7.67 10.5 7.25C10.5 6.83 10.83 6.5 11.25 6.5C11.67 6.5 12 6.83 12 7.25C12 7.67 11.67 8 11.25 8ZM0.75 9.5C0.33 9.5 0 9.17 0 8.75C0 8.33 0.33 8 0.75 8C1.17 8 1.5 8.33 1.5 8.75C1.5 9.17 1.17 9.5 0.75 9.5ZM9.75 9.5C9.33 9.5 9 9.17 9 8.75C9 8.33 9.33 8 9.75 8C10.17 8 10.5 8.33 10.5 8.75C10.5 9.17 10.17 9.5 9.75 9.5ZM2.25 9.5C1.83 9.5 1.5 9.17 1.5 8.75C1.5 8.33 1.83 8 2.25 8C2.67 8 3 8.33 3 8.75C3 9.17 2.67 9.5 2.25 9.5ZM11.25 9.5C10.83 9.5 10.5 9.17 10.5 8.75C10.5 8.33 10.83 8 11.25 8C11.67 8 12 8.33 12 8.75C12 9.17 11.67 9.5 11.25 9.5ZM11.25 11C10.83 11 10.5 10.67 10.5 10.25C10.5 9.83 10.83 9.5 11.25 9.5C11.67 9.5 12 9.83 12 10.25C12 10.67 11.67 11 11.25 11ZM9.75 11C9.33 11 9 10.67 9 10.25C9 9.83 9.33 9.5 9.75 9.5C10.17 9.5 10.5 9.83 10.5 10.25C10.5 10.67 10.17 11 9.75 11ZM2.25 11C1.83 11 1.5 10.67 1.5 10.25C1.5 9.83 1.83 9.5 2.25 9.5C2.67 9.5 3 9.83 3 10.25C3 10.67 2.67 11 2.25 11ZM0.75 11C0.33 11 0 10.67 0 10.25C0 9.83 0.33 9.5 0.75 9.5C1.17 9.5 1.5 9.83 1.5 10.25C1.5 10.67 1.17 11 0.75 11ZM8.25 12.5C7.83 12.5 7.5 12.17 7.5 11.75C7.5 11.33 7.83 11 8.25 11C8.67 11 9 11.33 9 11.75C9 12.17 8.67 12.5 8.25 12.5ZM2.25 12.5C1.83 12.5 1.5 12.17 1.5 11.75C1.5 11.33 1.83 11 2.25 11C2.67 11 3 11.33 3 11.75C3 12.17 2.67 12.5 2.25 12.5ZM9.75 12.5C9.33 12.5 9 12.17 9 11.75C9 11.33 9.33 11 9.75 11C10.17 11 10.5 11.33 10.5 11.75C10.5 12.17 10.17 12.5 9.75 12.5ZM0.75 12.5C0.33 12.5 0 12.17 0 11.75C0 11.33 0.33 11 0.75 11C1.17 11 1.5 11.33 1.5 11.75C1.5 12.17 1.17 12.5 0.75 12.5ZM11.25 12.5C10.83 12.5 10.5 12.17 10.5 11.75C10.5 11.33 10.83 11 11.25 11C11.67 11 12 11.33 12 11.75C12 12.17 11.67 12.5 11.25 12.5ZM0.75 14C0.33 14 0 13.67 0 13.25C0 12.83 0.33 12.5 0.75 12.5C1.17 12.5 1.5 12.83 1.5 13.25C1.5 13.67 1.17 14 0.75 14ZM2.25 14C1.83 14 1.5 13.67 1.5 13.25C1.5 12.83 1.83 12.5 2.25 12.5C2.67 12.5 3 12.83 3 13.25C3 13.67 2.67 14 2.25 14ZM3.75 14C3.33 14 3 13.67 3 13.25C3 12.83 3.33 12.5 3.75 12.5C4.17 12.5 4.5 12.83 4.5 13.25C4.5 13.67 4.17 14 3.75 14ZM9.75 14C9.33 14 9 13.67 9 13.25C9 12.83 9.33 12.5 9.75 12.5C10.17 12.5 10.5 12.83 10.5 13.25C10.5 13.67 10.17 14 9.75 14ZM8.25 14C7.83 14 7.5 13.67 7.5 13.25C7.5 12.83 7.83 12.5 8.25 12.5C8.67 12.5 9 12.83 9 13.25C9 13.67 8.67 14 8.25 14ZM6.75 14C6.33 14 6 13.67 6 13.25C6 12.83 6.33 12.5 6.75 12.5C7.17 12.5 7.5 12.83 7.5 13.25C7.5 13.67 7.17 14 6.75 14ZM5.25 14C4.83 14 4.5 13.67 4.5 13.25C4.5 12.83 4.83 12.5 5.25 12.5C5.67 12.5 6 12.83 6 13.25C6 13.67 5.67 14 5.25 14ZM0.75 15.5C0.33 15.5 0 15.17 0 14.75C0 14.33 0.33 14 0.75 14C1.17 14 1.5 14.33 1.5 14.75C1.5 15.17 1.17 15.5 0.75 15.5ZM2.25 15.5C1.83 15.5 1.5 15.17 1.5 14.75C1.5 14.33 1.83 14 2.25 14C2.67 14 3 14.33 3 14.75C3 15.17 2.67 15.5 2.25 15.5ZM6.75 15.5C6.33 15.5 6 15.17 6 14.75C6 14.33 6.33 14 6.75 14C7.17 14 7.5 14.33 7.5 14.75C7.5 15.17 7.17 15.5 6.75 15.5ZM3.75 15.5C3.33 15.5 3 15.17 3 14.75C3 14.33 3.33 14 3.75 14C4.17 14 4.5 14.33 4.5 14.75C4.5 15.17 4.17 15.5 3.75 15.5ZM5.25 15.5C4.83 15.5 4.5 15.17 4.5 14.75C4.5 14.33 4.83 14 5.25 14C5.67 14 6 14.33 6 14.75C6 15.17 5.67 15.5 5.25 15.5ZM20.25 5C19.83 5 19.5 4.67 19.5 4.25C19.5 3.83 19.83 3.5 20.25 3.5C20.67 3.5 21 3.83 21 4.25C21 4.67 20.67 5 20.25 5ZM18.75 5C18.33 5 18 4.67 18 4.25C18 3.83 18.33 3.5 18.75 3.5C19.17 3.5 19.5 3.83 19.5 4.25C19.5 4.67 19.17 5 18.75 5ZM17.25 5C16.83 5 16.5 4.67 16.5 4.25C16.5 3.83 16.83 3.5 17.25 3.5C17.67 3.5 18 3.83 18 4.25C18 4.67 17.67 5 17.25 5ZM20.25 6.5C19.83 6.5 19.5 6.17 19.5 5.75C19.5 5.33 19.83 5 20.25 5C20.67 5 21 5.33 21 5.75C21 6.17 20.67 6.5 20.25 6.5ZM15.75 6.5C15.33 6.5 15 6.17 15 5.75C15 5.33 15.33 5 15.75 5C16.17 5 16.5 5.33 16.5 5.75C16.5 6.17 16.17 6.5 15.75 6.5ZM21.75 6.5C21.33 6.5 21 6.17 21 5.75C21 5.33 21.33 5 21.75 5C22.17 5 22.5 5.33 22.5 5.75C22.5 6.17 22.17 6.5 21.75 6.5ZM18.75 6.5C18.33 6.5 18 6.17 18 5.75C18 5.33 18.33 5 18.75 5C19.17 5 19.5 5.33 19.5 5.75C19.5 6.17 19.17 6.5 18.75 6.5ZM17.25 6.5C16.83 6.5 16.5 6.17 16.5 5.75C16.5 5.33 16.83 5 17.25 5C17.67 5 18 5.33 18 5.75C18 6.17 17.67 6.5 17.25 6.5ZM14.25 8C13.83 8 13.5 7.67 13.5 7.25C13.5 6.83 13.83 6.5 14.25 6.5C14.67 6.5 15 6.83 15 7.25C15 7.67 14.67 8 14.25 8ZM21.75 8C21.33 8 21 7.67 21 7.25C21 6.83 21.33 6.5 21.75 6.5C22.17 6.5 22.5 6.83 22.5 7.25C22.5 7.67 22.17 8 21.75 8ZM15.75 8C15.33 8 15 7.67 15 7.25C15 6.83 15.33 6.5 15.75 6.5C16.17 6.5 16.5 6.83 16.5 7.25C16.5 7.67 16.17 8 15.75 8ZM23.25 8C22.83 8 22.5 7.67 22.5 7.25C22.5 6.83 22.83 6.5 23.25 6.5C23.67 6.5 24 6.83 24 7.25C24 7.67 23.67 8 23.25 8ZM15.75 9.5C15.33 9.5 15 9.17 15 8.75C15 8.33 15.33 8 15.75 8C16.17 8 16.5 8.33 16.5 8.75C16.5 9.17 16.17 9.5 15.75 9.5ZM21.75 9.5C21.33 9.5 21 9.17 21 8.75C21 8.33 21.33 8 21.75 8C22.17 8 22.5 8.33 22.5 8.75C22.5 9.17 22.17 9.5 21.75 9.5ZM23.25 9.5C22.83 9.5 22.5 9.17 22.5 8.75C22.5 8.33 22.83 8 23.25 8C23.67 8 24 8.33 24 8.75C24 9.17 23.67 9.5 23.25 9.5ZM14.25 9.5C13.83 9.5 13.5 9.17 13.5 8.75C13.5 8.33 13.83 8 14.25 8C14.67 8 15 8.33 15 8.75C15 9.17 14.67 9.5 14.25 9.5ZM17.25 9.5C16.83 9.5 16.5 9.17 16.5 8.75C16.5 8.33 16.83 8 17.25 8C17.67 8 18 8.33 18 8.75C18 9.17 17.67 9.5 17.25 9.5ZM18.75 9.5C18.33 9.5 18 9.17 18 8.75C18 8.33 18.33 8 18.75 8C19.17 8 19.5 8.33 19.5 8.75C19.5 9.17 19.17 9.5 18.75 9.5ZM20.25 9.5C19.83 9.5 19.5 9.17 19.5 8.75C19.5 8.33 19.83 8 20.25 8C20.67 8 21 8.33 21 8.75C21 9.17 20.67 9.5 20.25 9.5ZM15.75 11C15.33 11 15 10.67 15 10.25C15 9.83 15.33 9.5 15.75 9.5C16.17 9.5 16.5 9.83 16.5 10.25C16.5 10.67 16.17 11 15.75 11ZM17.25 11C16.83 11 16.5 10.67 16.5 10.25C16.5 9.83 16.83 9.5 17.25 9.5C17.67 9.5 18 9.83 18 10.25C18 10.67 17.67 11 17.25 11ZM18.75 11C18.33 11 18 10.67 18 10.25C18 9.83 18.33 9.5 18.75 9.5C19.17 9.5 19.5 9.83 19.5 10.25C19.5 10.67 19.17 11 18.75 11ZM20.25 11C19.83 11 19.5 10.67 19.5 10.25C19.5 9.83 19.83 9.5 20.25 9.5C20.67 9.5 21 9.83 21 10.25C21 10.67 20.67 11 20.25 11ZM21.75 11C21.33 11 21 10.67 21 10.25C21 9.83 21.33 9.5 21.75 9.5C22.17 9.5 22.5 9.83 22.5 10.25C22.5 10.67 22.17 11 21.75 11ZM23.25 11C22.83 11 22.5 10.67 22.5 10.25C22.5 9.83 22.83 9.5 23.25 9.5C23.67 9.5 24 9.83 24 10.25C24 10.67 23.67 11 23.25 11ZM14.25 11C13.83 11 13.5 10.67 13.5 10.25C13.5 9.83 13.83 9.5 14.25 9.5C14.67 9.5 15 9.83 15 10.25C15 10.67 14.67 11 14.25 11ZM15.75 12.5C15.33 12.5 15 12.17 15 11.75C15 11.33 15.33 11 15.75 11C16.17 11 16.5 11.33 16.5 11.75C16.5 12.17 16.17 12.5 15.75 12.5ZM14.25 12.5C13.83 12.5 13.5 12.17 13.5 11.75C13.5 11.33 13.83 11 14.25 11C14.67 11 15 11.33 15 11.75C15 12.17 14.67 12.5 14.25 12.5ZM15.75 14C15.33 14 15 13.67 15 13.25C15 12.83 15.33 12.5 15.75 12.5C16.17 12.5 16.5 12.83 16.5 13.25C16.5 13.67 16.17 14 15.75 14ZM17.25 14C16.83 14 16.5 13.67 16.5 13.25C16.5 12.83 16.83 12.5 17.25 12.5C17.67 12.5 18 12.83 18 13.25C18 13.67 17.67 14 17.25 14ZM18.75 14C18.33 14 18 13.67 18 13.25C18 12.83 18.33 12.5 18.75 12.5C19.17 12.5 19.5 12.83 19.5 13.25C19.5 13.67 19.17 14 18.75 14ZM20.25 14C19.83 14 19.5 13.67 19.5 13.25C19.5 12.83 19.83 12.5 20.25 12.5C20.67 12.5 21 12.83 21 13.25C21 13.67 20.67 14 20.25 14ZM21.75 14C21.33 14 21 13.67 21 13.25C21 12.83 21.33 12.5 21.75 12.5C22.17 12.5 22.5 12.83 22.5 13.25C22.5 13.67 22.17 14 21.75 14ZM23.25 14C22.83 14 22.5 13.67 22.5 13.25C22.5 12.83 22.83 12.5 23.25 12.5C23.67 12.5 24 12.83 24 13.25C24 13.67 23.67 14 23.25 14ZM17.25 15.5C16.83 15.5 16.5 15.17 16.5 14.75C16.5 14.33 16.83 14 17.25 14C17.67 14 18 14.33 18 14.75C18 15.17 17.67 15.5 17.25 15.5ZM18.75 15.5C18.33 15.5 18 15.17 18 14.75C18 14.33 18.33 14 18.75 14C19.17 14 19.5 14.33 19.5 14.75C19.5 15.17 19.17 15.5 18.75 15.5ZM20.25 15.5C19.83 15.5 19.5 15.17 19.5 14.75C19.5 14.33 19.83 14 20.25 14C20.67 14 21 14.33 21 14.75C21 15.17 20.67 15.5 20.25 15.5ZM21.75 15.5C21.33 15.5 21 15.17 21 14.75C21 14.33 21.33 14 21.75 14C22.17 14 22.5 14.33 22.5 14.75C22.5 15.17 22.17 15.5 21.75 15.5ZM32.25 5C31.83 5 31.5 4.67 31.5 4.25C31.5 3.83 31.83 3.5 32.25 3.5C32.67 3.5 33 3.83 33 4.25C33 4.67 32.67 5 32.25 5ZM30.75 5C30.33 5 30 4.67 30 4.25C30 3.83 30.33 3.5 30.75 3.5C31.17 3.5 31.5 3.83 31.5 4.25C31.5 4.67 31.17 5 30.75 5ZM29.25 5C28.83 5 28.5 4.67 28.5 4.25C28.5 3.83 28.83 3.5 29.25 3.5C29.67 3.5 30 3.83 30 4.25C30 4.67 29.67 5 29.25 5ZM32.25 6.5C31.83 6.5 31.5 6.17 31.5 5.75C31.5 5.33 31.83 5 32.25 5C32.67 5 33 5.33 33 5.75C33 6.17 32.67 6.5 32.25 6.5ZM27.75 6.5C27.33 6.5 27 6.17 27 5.75C27 5.33 27.33 5 27.75 5C28.17 5 28.5 5.33 28.5 5.75C28.5 6.17 28.17 6.5 27.75 6.5ZM33.75 6.5C33.33 6.5 33 6.17 33 5.75C33 5.33 33.33 5 33.75 5C34.17 5 34.5 5.33 34.5 5.75C34.5 6.17 34.17 6.5 33.75 6.5ZM30.75 6.5C30.33 6.5 30 6.17 30 5.75C30 5.33 30.33 5 30.75 5C31.17 5 31.5 5.33 31.5 5.75C31.5 6.17 31.17 6.5 30.75 6.5ZM29.25 6.5C28.83 6.5 28.5 6.17 28.5 5.75C28.5 5.33 28.83 5 29.25 5C29.67 5 30 5.33 30 5.75C30 6.17 29.67 6.5 29.25 6.5ZM26.25 8C25.83 8 25.5 7.67 25.5 7.25C25.5 6.83 25.83 6.5 26.25 6.5C26.67 6.5 27 6.83 27 7.25C27 7.67 26.67 8 26.25 8ZM33.75 8C33.33 8 33 7.67 33 7.25C33 6.83 33.33 6.5 33.75 6.5C34.17 6.5 34.5 6.83 34.5 7.25C34.5 7.67 34.17 8 33.75 8ZM27.75 8C27.33 8 27 7.67 27 7.25C27 6.83 27.33 6.5 27.75 6.5C28.17 6.5 28.5 6.83 28.5 7.25C28.5 7.67 28.17 8 27.75 8ZM35.25 8C34.83 8 34.5 7.67 34.5 7.25C34.5 6.83 34.83 6.5 35.25 6.5C35.67 6.5 36 6.83 36 7.25C36 7.67 35.67 8 35.25 8ZM27.75 9.5C27.33 9.5 27 9.17 27 8.75C27 8.33 27.33 8 27.75 8C28.17 8 28.5 8.33 28.5 8.75C28.5 9.17 28.17 9.5 27.75 9.5ZM33.75 9.5C33.33 9.5 33 9.17 33 8.75C33 8.33 33.33 8 33.75 8C34.17 8 34.5 8.33 34.5 8.75C34.5 9.17 34.17 9.5 33.75 9.5ZM35.25 9.5C34.83 9.5 34.5 9.17 34.5 8.75C34.5 8.33 34.83 8 35.25 8C35.67 8 36 8.33 36 8.75C36 9.17 35.67 9.5 35.25 9.5ZM26.25 9.5C25.83 9.5 25.5 9.17 25.5 8.75C25.5 8.33 25.83 8 26.25 8C26.67 8 27 8.33 27 8.75C27 9.17 26.67 9.5 26.25 9.5ZM29.25 9.5C28.83 9.5 28.5 9.17 28.5 8.75C28.5 8.33 28.83 8 29.25 8C29.67 8 30 8.33 30 8.75C30 9.17 29.67 9.5 29.25 9.5ZM30.75 9.5C30.33 9.5 30 9.17 30 8.75C30 8.33 30.33 8 30.75 8C31.17 8 31.5 8.33 31.5 8.75C31.5 9.17 31.17 9.5 30.75 9.5ZM32.25 9.5C31.83 9.5 31.5 9.17 31.5 8.75C31.5 8.33 31.83 8 32.25 8C32.67 8 33 8.33 33 8.75C33 9.17 32.67 9.5 32.25 9.5ZM27.75 11C27.33 11 27 10.67 27 10.25C27 9.83 27.33 9.5 27.75 9.5C28.17 9.5 28.5 9.83 28.5 10.25C28.5 10.67 28.17 11 27.75 11ZM29.25 11C28.83 11 28.5 10.67 28.5 10.25C28.5 9.83 28.83 9.5 29.25 9.5C29.67 9.5 30 9.83 30 10.25C30 10.67 29.67 11 29.25 11ZM30.75 11C30.33 11 30 10.67 30 10.25C30 9.83 30.33 9.5 30.75 9.5C31.17 9.5 31.5 9.83 31.5 10.25C31.5 10.67 31.17 11 30.75 11ZM32.25 11C31.83 11 31.5 10.67 31.5 10.25C31.5 9.83 31.83 9.5 32.25 9.5C32.67 9.5 33 9.83 33 10.25C33 10.67 32.67 11 32.25 11ZM33.75 11C33.33 11 33 10.67 33 10.25C33 9.83 33.33 9.5 33.75 9.5C34.17 9.5 34.5 9.83 34.5 10.25C34.5 10.67 34.17 11 33.75 11ZM35.25 11C34.83 11 34.5 10.67 34.5 10.25C34.5 9.83 34.83 9.5 35.25 9.5C35.67 9.5 36 9.83 36 10.25C36 10.67 35.67 11 35.25 11ZM26.25 11C25.83 11 25.5 10.67 25.5 10.25C25.5 9.83 25.83 9.5 26.25 9.5C26.67 9.5 27 9.83 27 10.25C27 10.67 26.67 11 26.25 11ZM27.75 12.5C27.33 12.5 27 12.17 27 11.75C27 11.33 27.33 11 27.75 11C28.17 11 28.5 11.33 28.5 11.75C28.5 12.17 28.17 12.5 27.75 12.5ZM26.25 12.5C25.83 12.5 25.5 12.17 25.5 11.75C25.5 11.33 25.83 11 26.25 11C26.67 11 27 11.33 27 11.75C27 12.17 26.67 12.5 26.25 12.5ZM27.75 14C27.33 14 27 13.67 27 13.25C27 12.83 27.33 12.5 27.75 12.5C28.17 12.5 28.5 12.83 28.5 13.25C28.5 13.67 28.17 14 27.75 14ZM29.25 14C28.83 14 28.5 13.67 28.5 13.25C28.5 12.83 28.83 12.5 29.25 12.5C29.67 12.5 30 12.83 30 13.25C30 13.67 29.67 14 29.25 14ZM30.75 14C30.33 14 30 13.67 30 13.25C30 12.83 30.33 12.5 30.75 12.5C31.17 12.5 31.5 12.83 31.5 13.25C31.5 13.67 31.17 14 30.75 14ZM32.25 14C31.83 14 31.5 13.67 31.5 13.25C31.5 12.83 31.83 12.5 32.25 12.5C32.67 12.5 33 12.83 33 13.25C33 13.67 32.67 14 32.25 14ZM33.75 14C33.33 14 33 13.67 33 13.25C33 12.83 33.33 12.5 33.75 12.5C34.17 12.5 34.5 12.83 34.5 13.25C34.5 13.67 34.17 14 33.75 14ZM35.25 14C34.83 14 34.5 13.67 34.5 13.25C34.5 12.83 34.83 12.5 35.25 12.5C35.67 12.5 36 12.83 36 13.25C36 13.67 35.67 14 35.25 14ZM29.25 15.5C28.83 15.5 28.5 15.17 28.5 14.75C28.5 14.33 28.83 14 29.25 14C29.67 14 30 14.33 30 14.75C30 15.17 29.67 15.5 29.25 15.5ZM30.75 15.5C30.33 15.5 30 15.17 30 14.75C30 14.33 30.33 14 30.75 14C31.17 14 31.5 14.33 31.5 14.75C31.5 15.17 31.17 15.5 30.75 15.5ZM32.25 15.5C31.83 15.5 31.5 15.17 31.5 14.75C31.5 14.33 31.83 14 32.25 14C32.67 14 33 14.33 33 14.75C33 15.17 32.67 15.5 32.25 15.5ZM33.75 15.5C33.33 15.5 33 15.17 33 14.75C33 14.33 33.33 14 33.75 14C34.17 14 34.5 14.33 34.5 14.75C34.5 15.17 34.17 15.5 33.75 15.5Z" fill="#48FFB0"></path>
  <path d="M44.26 15.74C43.3267 15.74 42.46 15.5667 41.66 15.22C40.86 14.86 40.18 14.3733 39.62 13.76C39.06 13.1467 38.6467 12.44 38.38 11.64L40.38 10.8C40.74 11.72 41.2667 12.4267 41.96 12.92C42.6533 13.4133 43.4533 13.66 44.36 13.66C44.8933 13.66 45.36 13.58 45.76 13.42C46.16 13.2467 46.4667 13.0067 46.68 12.7C46.9067 12.3933 47.02 12.04 47.02 11.64C47.02 11.0933 46.8667 10.66 46.56 10.34C46.2533 10.02 45.8 9.76667 45.2 9.58L42.4 8.7C41.28 8.35333 40.4267 7.82667 39.84 7.12C39.2533 6.4 38.96 5.56 38.96 4.6C38.96 3.76 39.1667 3.02667 39.58 2.4C39.9933 1.76 40.56 1.26 41.28 0.9C42.0133 0.539999 42.8467 0.359999 43.78 0.359999C44.6733 0.359999 45.4867 0.519999 46.22 0.839999C46.9533 1.14667 47.58 1.57333 48.1 2.12C48.6333 2.66667 49.02 3.3 49.26 4.02L47.3 4.88C47.0067 4.09333 46.5467 3.48667 45.92 3.06C45.3067 2.63333 44.5933 2.42 43.78 2.42C43.2867 2.42 42.8533 2.50667 42.48 2.68C42.1067 2.84 41.8133 3.08 41.6 3.4C41.4 3.70667 41.3 4.06667 41.3 4.48C41.3 4.96 41.4533 5.38667 41.76 5.76C42.0667 6.13333 42.5333 6.41333 43.16 6.6L45.76 7.42C46.9467 7.78 47.84 8.3 48.44 8.98C49.04 9.64667 49.34 10.48 49.34 11.48C49.34 12.3067 49.12 13.04 48.68 13.68C48.2533 14.32 47.66 14.8267 46.9 15.2C46.14 15.56 45.26 15.74 44.26 15.74ZM56.4492 15.62C55.3159 15.62 54.4359 15.3 53.8092 14.66C53.1826 14.02 52.8692 13.12 52.8692 11.96V6.72H50.9692V4.68H51.2692C51.7759 4.68 52.1692 4.53333 52.4492 4.24C52.7292 3.94667 52.8692 3.54667 52.8692 3.04V2.2H55.1292V4.68H57.5892V6.72H55.1292V11.86C55.1292 12.2333 55.1892 12.5533 55.3092 12.82C55.4292 13.0733 55.6226 13.2733 55.8892 13.42C56.1559 13.5533 56.5026 13.62 56.9292 13.62C57.0359 13.62 57.1559 13.6133 57.2892 13.6C57.4226 13.5867 57.5492 13.5733 57.6692 13.56V15.5C57.4826 15.5267 57.2759 15.5533 57.0492 15.58C56.8226 15.6067 56.6226 15.62 56.4492 15.62ZM59.8747 15.5V4.68H62.0347V6.86L61.8347 6.54C62.0747 5.83333 62.4614 5.32667 62.9947 5.02C63.528 4.7 64.168 4.54 64.9147 4.54H65.5747V6.6H64.6347C63.888 6.6 63.2814 6.83333 62.8147 7.3C62.3614 7.75333 62.1347 8.40667 62.1347 9.26V15.5H59.8747ZM72.2008 15.74C71.1208 15.74 70.1608 15.4933 69.3208 15C68.4941 14.4933 67.8474 13.8133 67.3808 12.96C66.9141 12.0933 66.6808 11.1267 66.6808 10.06C66.6808 8.96667 66.9141 8 67.3808 7.16C67.8608 6.32 68.5008 5.66 69.3008 5.18C70.1008 4.68667 71.0074 4.44 72.0208 4.44C72.8341 4.44 73.5608 4.58 74.2008 4.86C74.8408 5.14 75.3808 5.52667 75.8208 6.02C76.2608 6.5 76.5941 7.05333 76.8208 7.68C77.0608 8.30667 77.1808 8.97333 77.1808 9.68C77.1808 9.85333 77.1741 10.0333 77.1608 10.22C77.1474 10.4067 77.1208 10.58 77.0808 10.74H68.4608V8.94H75.8008L74.7208 9.76C74.8541 9.10667 74.8074 8.52667 74.5808 8.02C74.3674 7.5 74.0341 7.09333 73.5808 6.8C73.1408 6.49333 72.6208 6.34 72.0208 6.34C71.4208 6.34 70.8874 6.49333 70.4208 6.8C69.9541 7.09333 69.5941 7.52 69.3408 8.08C69.0874 8.62667 68.9874 9.29333 69.0408 10.08C68.9741 10.8133 69.0741 11.4533 69.3408 12C69.6208 12.5467 70.0074 12.9733 70.5008 13.28C71.0074 13.5867 71.5808 13.74 72.2208 13.74C72.8741 13.74 73.4274 13.5933 73.8808 13.3C74.3474 13.0067 74.7141 12.6267 74.9808 12.16L76.8208 13.06C76.6074 13.5667 76.2741 14.0267 75.8208 14.44C75.3808 14.84 74.8474 15.16 74.2208 15.4C73.6074 15.6267 72.9341 15.74 72.2008 15.74ZM82.5288 15.74C81.7954 15.74 81.1488 15.6133 80.5888 15.36C80.0421 15.0933 79.6154 14.7333 79.3088 14.28C79.0021 13.8133 78.8488 13.2667 78.8488 12.64C78.8488 12.0533 78.9754 11.5267 79.2288 11.06C79.4954 10.5933 79.9021 10.2 80.4488 9.88C80.9954 9.56 81.6821 9.33333 82.5088 9.2L86.2688 8.58V10.36L82.9488 10.94C82.3488 11.0467 81.9088 11.24 81.6288 11.52C81.3488 11.7867 81.2088 12.1333 81.2088 12.56C81.2088 12.9733 81.3621 13.3133 81.6688 13.58C81.9888 13.8333 82.3954 13.96 82.8888 13.96C83.5021 13.96 84.0354 13.8267 84.4888 13.56C84.9554 13.2933 85.3154 12.94 85.5688 12.5C85.8221 12.0467 85.9488 11.5467 85.9488 11V8.22C85.9488 7.68667 85.7488 7.25333 85.3488 6.92C84.9621 6.57333 84.4421 6.4 83.7888 6.4C83.1888 6.4 82.6621 6.56 82.2088 6.88C81.7688 7.18667 81.4421 7.58667 81.2288 8.08L79.3488 7.14C79.5488 6.60667 79.8754 6.14 80.3288 5.74C80.7821 5.32667 81.3088 5.00667 81.9088 4.78C82.5221 4.55333 83.1688 4.44 83.8487 4.44C84.7021 4.44 85.4554 4.6 86.1088 4.92C86.7754 5.24 87.2888 5.68667 87.6488 6.26C88.0221 6.82 88.2088 7.47333 88.2088 8.22V15.5H86.0488V13.54L86.5088 13.6C86.2554 14.04 85.9288 14.42 85.5288 14.74C85.1421 15.06 84.6954 15.3067 84.1888 15.48C83.6954 15.6533 83.1421 15.74 82.5288 15.74ZM90.8512 15.5V4.68H93.0113V7.02L92.7313 6.66C92.9579 5.92667 93.3713 5.37333 93.9713 5C94.5713 4.62667 95.2579 4.44 96.0313 4.44C96.8979 4.44 97.6646 4.67333 98.3313 5.14C99.0113 5.59333 99.4646 6.2 99.6913 6.96L99.0513 7.02C99.3713 6.15333 99.8579 5.50667 100.511 5.08C101.178 4.65333 101.938 4.44 102.791 4.44C103.538 4.44 104.211 4.61333 104.811 4.96C105.425 5.30667 105.911 5.78667 106.271 6.4C106.631 7.01333 106.811 7.71333 106.811 8.5V15.5H104.551V9.12C104.551 8.57333 104.451 8.11333 104.251 7.74C104.065 7.35333 103.798 7.06 103.451 6.86C103.118 6.64667 102.725 6.54 102.271 6.54C101.818 6.54 101.418 6.64667 101.071 6.86C100.725 7.06 100.451 7.35333 100.251 7.74C100.051 8.12667 99.9513 8.58667 99.9513 9.12V15.5H97.7113V9.12C97.7113 8.57333 97.6113 8.11333 97.4113 7.74C97.2246 7.35333 96.9579 7.06 96.6113 6.86C96.2779 6.64667 95.8779 6.54 95.4112 6.54C94.9579 6.54 94.5579 6.64667 94.2113 6.86C93.8646 7.06 93.5913 7.35333 93.3913 7.74C93.2046 8.12667 93.1113 8.58667 93.1113 9.12V15.5H90.8512Z" fill="white"></path>
</svg>
